<svg aria-hidden="true" style="width:0;height:0;position:absolute;overflow:hidden" xmlns="http://www.w3.org/2000/svg"><defs><symbol id="icon-mobile-menu-close" viewBox="0 0 32 32"><path d="M28.614 1.13 16 13.744 3.386 1.13a1.594 1.594 0 0 0-2.207.049 1.596 1.596 0 0 0-.049 2.207L13.738 16 1.127 28.611a1.6 1.6 0 0 0-.029 2.284 1.579 1.579 0 0 0 1.147.468 1.616 1.616 0 0 0 1.137-.493L16 18.259l12.614 12.614a1.6 1.6 0 0 0 2.207-.049 1.596 1.596 0 0 0 .049-2.207L18.256 16.003 30.87 3.385a1.6 1.6 0 0 0 .029-2.284 1.579 1.579 0 0 0-1.147-.468 1.601 1.601 0 0 0-1.137.494v.003z"/></symbol><symbol id="icon-mobile-menu" viewBox="0 0 48 32"><path d="M0 5.334V0h48v5.334H0zm0 13.332h48v-5.332H0v5.332zM0 32h48v-5.334H0V32z"/></symbol><symbol id="icon-arrow" viewBox="0 0 84 32"><path d="M81.948 17.192a1.995 1.995 0 0 0 0-2.83L69.222 1.634a2.001 2.001 0 0 0-2.83 2.83l11.314 11.312L66.392 27.09a2.001 2.001 0 0 0 2.83 2.83L81.95 17.192zm-81.882.584h80.468v-4H.066v4z"/></symbol><symbol id="icon-inbutton" viewBox="0 0 22 32"><path stroke-linejoin="round" stroke-linecap="round" stroke-width="6.4" d="M3.2 3.2 19.04 16 3.2 28.8"/><symbol id="icon-closeblack" viewBox="0 0 32 32"><path d="m26.667 7.303-1.97-1.97-7.808 7.808-7.808-7.808-1.97 1.97 7.808 7.808-7.808 7.808 1.97 1.97 7.808-7.808 7.808 7.808 1.97-1.97-7.808-7.808 7.808-7.808z"/></symbol></symbol></defs></svg>