<svg aria-hidden="true" style="width:0;height:0;position:absolute;overflow:hidden" xmlns="http://www.w3.org/2000/svg"><defs><symbol id="icon-telegram" viewBox="0 0 44 32"><path d="M39.6.25C38.798.476 3.202 13.238 2.666 13.49c-.692.326-1.158.716-1.272 1.066-.154.464.202.95.912 1.242.204.084 9.258 2.742 9.728 2.854.024.006 4.944-2.85 10.936-6.348C29.392 8.554 34 5.908 34.2 5.854c.586-.158.974.116.658.466-.074.082-4.046 3.428-8.828 7.434l-8.694 7.286-.314 4.202c-.172 2.31-.32 4.3-.326 4.42-.012.208 0 .218.244.198.724-.06.85-.15 3.394-2.412 2.621-2.309 3.464-3.063 4.307-3.817l-1.715 1.509.154-.14 4.686 3.206c2.792 1.912 4.862 3.28 5.122 3.388.938.384 1.762.276 2.278-.294.404-.446.572-.902.978-2.67 3.966-17.218 5.95-26.058 5.95-26.524 0-.708-.122-1.054-.512-1.456-.478-.492-1.166-.63-1.982-.4z"/></symbol><symbol id="icon-github" viewBox="0 0 32 32"><path d="M15.013.03c-1.757.17-2.854.387-4.08.806-4.52 1.569-8.057 4.958-9.792 9.267l-.039.109C.461 11.78.066 13.596.016 15.499v.02c-.123 3.862 1.186 7.746 3.67 10.888.55.698 1.997 2.147 2.661 2.666 1.875 1.469 3.411 2.235 5.826 2.907.088.026.094-.125.094-2.624v-2.65l-.174.035a4.011 4.011 0 0 1-2.152-.187l.028.009c-.76-.286-1.427-.859-1.99-1.712-.531-.802-1.11-1.275-1.565-1.278-.144-.002-.173-.021-.173-.122 0-.158-.099-1.29-.134-1.552l-.029-.208.469.026c1.107.056 2.082.733 2.965 2.056.405.605.694.875 1.109 1.032.349.133.939.141 1.379.016.304-.085.322-.099.352-.283.091-.552.314-1.029.779-1.669.149-.203.261-.378.25-.387a8.136 8.136 0 0 0-.626-.147l-.07-.012c-3.251-.675-5.347-2.538-6.005-5.331-.125-.528-.139-.702-.139-1.581 0-1.128.098-1.718.43-2.611.243-.65.338-.835.704-1.382l.39-.587c.085-.131.083-.158-.019-.512-.08-.27-.117-.59-.138-1.163-.032-.906.026-1.366.261-2.106.13-.405.176-.491.248-.469.05.016.309.053.574.082.266.03.626.104.8.163.411.142 1.286.587 2.022 1.032.323.195.627.354.677.354.048 0 .336-.059.64-.131 1.027-.243 1.698-.318 2.87-.318s1.843.075 2.87.318c.304.072.592.131.64.131.05-.002.354-.158.677-.35.677-.403 1.746-.936 2.133-1.064.147-.048.474-.109.726-.134a4.89 4.89 0 0 0 .539-.078c.098-.038.189.174.368.854.11.422.126.598.125 1.467 0 .939-.042 1.272-.214 1.72-.014.04.144.334.352.656.421.645.832 1.466 1.003 1.997.238.739.291 1.112.293 2.053.002.795-.016.981-.139 1.507-.685 2.922-2.757 4.8-6.056 5.485-.305.059-.54.114-.772.177l.074-.017c-.011.01.123.218.299.461.176.242.394.587.483.765.323.64.331.766.331 4.718 0 3.382.006 3.578.094 3.552 2.389-.666 4.03-1.483 5.826-2.906a21.757 21.757 0 0 0 2.398-2.348l.022-.025c3.528-4.251 4.774-9.858 3.333-14.995a16.755 16.755 0 0 0-2.975-5.741l.026.034a20.102 20.102 0 0 0-2.374-2.384l-.029-.024C23.645 1.659 21.045.546 17.973.131c-.584-.078-2.507-.144-2.96-.101z"/></symbol><symbol id="icon-facebook" viewBox="0 0 16 32"><path d="M9.44 1.191c-.45.047-.845.111-1.233.195l.073-.013c-2.086.495-3.504 1.935-4.051 4.113-.211.839-.212.864-.223 3.187l-.01 2.073H1.093v5.228h2.906v14.852h6.106V15.974h4.041l.262-2.58c.144-1.42.26-2.595.259-2.614 0-.026-.476-.033-2.282-.033h-2.282l.01-1.713c.009-1.639.012-1.721.064-1.892.107-.409.424-.725.825-.829l.008-.002c.128-.038.365-.044 1.914-.044h1.769V1.175l-2.567.004a275.41 275.41 0 0 0-2.687.013z"/></symbol><symbol id="icon-button-arrow" viewBox="0 0 32 32"><path d="M10.08 2.579c-.901.243-1.995 1.477-2.189 2.472-.131.677.077 1.296.64 1.899.181.195 2.741 2.301 5.685 4.68 2.947 2.381 5.357 4.347 5.357 4.371s-2.411 1.989-5.357 4.371c-2.944 2.379-5.504 4.485-5.685 4.68-.987 1.056-.888 2.277.285 3.517.696.733 1.296.995 2.032.88a3.19 3.19 0 0 0 1.245-.525c.147-.109 11.811-9.52 13.469-10.864.291-.237.664-.744.885-1.205.181-.379.192-.429.192-.933 0-.496-.013-.56-.173-.888a3.352 3.352 0 0 0-.507-.704c-.256-.267-12.933-10.555-13.867-11.251-.304-.227-.843-.461-1.192-.517-.395-.067-.52-.061-.821.019z"/></symbol><symbol id="icon-go-to-top" viewBox="0 0 32 32"><path d="m27.414 12.586-10-10a2 2 0 0 0-2.828 0l-10 10a2 2 0 1 0 2.828 2.828L14 8.828V28a2 2 0 1 0 4 0V8.828l6.586 6.586c.39.39.902.586 1.414.586s1.024-.195 1.414-.586a2 2 0 0 0 0-2.828z"/></symbol></defs></svg>