
<svg aria-hidden="true" style="position:absolute;width:0;height:0;overflow:hidden" xmlns="http://www.w3.org/2000/svg"><defs><symbol id="icon-mobile-menu-close" viewBox="0 0 32 32"><path d="M28.614 1.13 16 13.744 3.386 1.13a1.594 1.594 0 0 0-2.207.049 1.596 1.596 0 0 0-.049 2.207L13.738 16 1.127 28.611a1.6 1.6 0 0 0-.029 2.284 1.579 1.579 0 0 0 1.147.468 1.616 1.616 0 0 0 1.137-.493L16 18.259l12.614 12.614a1.6 1.6 0 0 0 2.207-.049 1.596 1.596 0 0 0 .049-2.207L18.256 16.003 30.87 3.385a1.6 1.6 0 0 0 .029-2.284 1.579 1.579 0 0 0-1.147-.468 1.601 1.601 0 0 0-1.137.494v.003z"/></symbol>><symbol id="icon-mobile-menu" viewBox="0 0 48 32"><path d="M0 5.334v-5.334h48v5.334h-48zM0 18.666h48v-5.332h-48v5.332zM0 32h48v-5.334h-48v5.334z"></path></symbol><symbol id="icon-arrow" viewBox="0 0 84 32">
<path d="M81.948 17.192c0.362-0.362 0.587-0.862 0.587-1.415s-0.224-1.053-0.587-1.415l-12.726-12.728c-0.362-0.362-0.862-0.586-1.415-0.586-1.105 0-2.001 0.896-2.001 2.001 0 0.553 0.224 1.053 0.586 1.415l11.314 11.312-11.314 11.314c-0.362 0.362-0.586 0.862-0.586 1.415 0 1.105 0.896 2.001 2.001 2.001 0.553 0 1.053-0.224 1.415-0.586l12.728-12.728zM0.066 17.776h80.468v-4h-80.468v4z"></path>
</symbol><symbol id="icon-inbutton" viewBox="0 0 22 32">
<path stroke-linejoin="round" stroke-linecap="round" stroke-miterlimit="4" stroke-width="6.4" d="M3.2 3.2l15.84 12.8-15.84 12.8"></path><symbol id="icon-closeblack" viewBox="0 0 32 32"><path d="M26.667 7.303l-1.97-1.97-7.808 7.808-7.808-7.808-1.97 1.97 7.808 7.808-7.808 7.808 1.97 1.97 7.808-7.808 7.808 7.808 1.97-1.97-7.808-7.808 7.808-7.808z"></path></symbol></defs></svg>
