<svg aria-hidden="true" style="position: absolute; width: 0; height: 0; overflow: hidden;" version="1.1" xmlns="http://www.w3.org/2000/svg" xmlns:xlink="http://www.w3.org/1999/xlink">
<defs>
<symbol id="icon-telegram" viewBox="0 0 44 32">
<path d="M39.6 0.25c-0.802 0.226-36.398 12.988-36.934 13.24-0.692 0.326-1.158 0.716-1.272 1.066-0.154 0.464 0.202 0.95 0.912 1.242 0.204 0.084 9.258 2.742 9.728 2.854 0.024 0.006 4.944-2.85 10.936-6.348 6.422-3.75 11.030-6.396 11.23-6.45 0.586-0.158 0.974 0.116 0.658 0.466-0.074 0.082-4.046 3.428-8.828 7.434l-8.694 7.286-0.314 4.202c-0.172 2.31-0.32 4.3-0.326 4.42-0.012 0.208 0 0.218 0.244 0.198 0.724-0.060 0.85-0.15 3.394-2.412 2.621-2.309 3.464-3.063 4.307-3.817l-1.715 1.509 0.154-0.14 4.686 3.206c2.792 1.912 4.862 3.28 5.122 3.388 0.938 0.384 1.762 0.276 2.278-0.294 0.404-0.446 0.572-0.902 0.978-2.67 3.966-17.218 5.95-26.058 5.95-26.524 0-0.708-0.122-1.054-0.512-1.456-0.478-0.492-1.166-0.63-1.982-0.4z"></path>
</symbol>
<symbol id="icon-github" viewBox="0 0 32 32">
<path d="M15.013 0.030c-1.757 0.17-2.854 0.387-4.080 0.806-4.52 1.569-8.057 4.958-9.792 9.267l-0.039 0.109c-0.641 1.568-1.036 3.384-1.086 5.287l-0 0.020c-0.123 3.862 1.186 7.746 3.67 10.888 0.55 0.698 1.997 2.147 2.661 2.666 1.875 1.469 3.411 2.235 5.826 2.907 0.088 0.026 0.094-0.125 0.094-2.624v-2.65l-0.174 0.035c-0.222 0.044-0.478 0.068-0.739 0.068-0.497 0-0.974-0.090-1.413-0.255l0.028 0.009c-0.76-0.286-1.427-0.859-1.99-1.712-0.531-0.802-1.11-1.275-1.565-1.278-0.144-0.002-0.173-0.021-0.173-0.122 0-0.158-0.099-1.29-0.134-1.552l-0.029-0.208 0.469 0.026c1.107 0.056 2.082 0.733 2.965 2.056 0.405 0.605 0.694 0.875 1.109 1.032 0.349 0.133 0.939 0.141 1.379 0.016 0.304-0.085 0.322-0.099 0.352-0.283 0.091-0.552 0.314-1.029 0.779-1.669 0.149-0.203 0.261-0.378 0.25-0.387-0.155-0.045-0.389-0.1-0.626-0.147l-0.070-0.012c-3.251-0.675-5.347-2.538-6.005-5.331-0.125-0.528-0.139-0.702-0.139-1.581 0-1.128 0.098-1.718 0.43-2.611 0.243-0.65 0.338-0.835 0.704-1.382l0.39-0.587c0.085-0.131 0.083-0.158-0.019-0.512-0.080-0.27-0.117-0.59-0.138-1.163-0.032-0.906 0.026-1.366 0.261-2.106 0.13-0.405 0.176-0.491 0.248-0.469 0.050 0.016 0.309 0.053 0.574 0.082 0.266 0.030 0.626 0.104 0.8 0.163 0.411 0.142 1.286 0.587 2.022 1.032 0.323 0.195 0.627 0.354 0.677 0.354 0.048 0 0.336-0.059 0.64-0.131 1.027-0.243 1.698-0.318 2.87-0.318s1.843 0.075 2.87 0.318c0.304 0.072 0.592 0.131 0.64 0.131 0.050-0.002 0.354-0.158 0.677-0.35 0.677-0.403 1.746-0.936 2.133-1.064 0.147-0.048 0.474-0.109 0.726-0.134 0.251-0.027 0.494-0.062 0.539-0.078 0.098-0.038 0.189 0.174 0.368 0.854 0.11 0.422 0.126 0.598 0.125 1.467 0 0.939-0.042 1.272-0.214 1.72-0.014 0.040 0.144 0.334 0.352 0.656 0.421 0.645 0.832 1.466 1.003 1.997 0.238 0.739 0.291 1.112 0.293 2.053 0.002 0.795-0.016 0.981-0.139 1.507-0.685 2.922-2.757 4.8-6.056 5.485-0.305 0.059-0.54 0.114-0.772 0.177l0.074-0.017c-0.011 0.010 0.123 0.218 0.299 0.461 0.176 0.242 0.394 0.587 0.483 0.765 0.323 0.64 0.331 0.766 0.331 4.718 0 3.382 0.006 3.578 0.094 3.552 2.389-0.666 4.030-1.483 5.826-2.906 0.879-0.739 1.67-1.515 2.398-2.348l0.022-0.025c3.528-4.251 4.774-9.858 3.333-14.995-0.65-2.19-1.66-4.092-2.975-5.741l0.026 0.034c-0.741-0.878-1.527-1.666-2.374-2.384l-0.029-0.024c-2.408-1.933-5.008-3.046-8.080-3.461-0.584-0.078-2.507-0.144-2.96-0.101z"></path>
</symbol>
<symbol id="icon-facebook" viewBox="0 0 16 32">
<path d="M9.44 1.191c-0.45 0.047-0.845 0.111-1.233 0.195l0.073-0.013c-2.086 0.495-3.504 1.935-4.051 4.113-0.211 0.839-0.212 0.864-0.223 3.187l-0.010 2.073h-2.903v5.228h2.906v14.852h6.106v-14.852h4.041l0.262-2.58c0.144-1.42 0.26-2.595 0.259-2.614 0-0.026-0.476-0.033-2.282-0.033h-2.282l0.010-1.713c0.009-1.639 0.012-1.721 0.064-1.892 0.107-0.409 0.424-0.725 0.825-0.829l0.008-0.002c0.128-0.038 0.365-0.044 1.914-0.044h1.769v-5.092l-2.567 0.004c-1.411 0.003-2.621 0.009-2.687 0.013z"></path>
</symbol>
<symbol id="icon-button-arrow" viewBox="0 0 32 32">
<path d="M10.080 2.579c-0.901 0.243-1.995 1.477-2.189 2.472-0.131 0.677 0.077 1.296 0.64 1.899 0.181 0.195 2.741 2.301 5.685 4.68 2.947 2.381 5.357 4.347 5.357 4.371s-2.411 1.989-5.357 4.371c-2.944 2.379-5.504 4.485-5.685 4.68-0.987 1.056-0.888 2.277 0.285 3.517 0.696 0.733 1.296 0.995 2.032 0.88 0.392-0.061 0.925-0.285 1.245-0.525 0.147-0.109 11.811-9.52 13.469-10.864 0.291-0.237 0.664-0.744 0.885-1.205 0.181-0.379 0.192-0.429 0.192-0.933 0-0.496-0.013-0.56-0.173-0.888-0.101-0.205-0.315-0.501-0.507-0.704-0.256-0.267-12.933-10.555-13.867-11.251-0.304-0.227-0.843-0.461-1.192-0.517-0.395-0.067-0.52-0.061-0.821 0.019z"></path>
</symbol>
<symbol id="icon-go-to-top" viewBox="0 0 32 32">
<path d="m27.414 12.586-10-10a2 2 0 0 0-2.828 0l-10 10a2 2 0 1 0 2.828 2.828L14 8.828V28a2 2 0 1 0 4 0V8.828l6.586 6.586c.39.39.902.586 1.414.586s1.024-.195 1.414-.586a2 2 0 0 0 0-2.828z"/>
</symbol>
</defs>
</svg>
